<?xml version="1.0" encoding="UTF-8" standalone="no"?>
<!-- Created with Inkscape (http://www.inkscape.org/) -->

<svg
   width="1080"
   height="1080"
   viewBox="0 0 1080 1080"
   version="1.1"
   id="svg1"
   xmlns="http://www.w3.org/2000/svg"
   xmlns:svg="http://www.w3.org/2000/svg">
  <defs
     id="defs1">
    <linearGradient
       id="linearGradient41">
      <stop
         style="stop-color:#000000;stop-opacity:1;"
         offset="0"
         id="stop41" />
      <stop
         style="stop-color:#000000;stop-opacity:0;"
         offset="1"
         id="stop42" />
    </linearGradient>
    <linearGradient
       id="swatch39">
      <stop
         style="stop-color:#000000;stop-opacity:1;"
         offset="0"
         id="stop39" />
    </linearGradient>
  </defs>
  <path
     id="path101"
     style="display:inline;fill:#457b9d;fill-opacity:1;fill-rule:nonzero;stroke:none;stroke-width:5;stroke-linecap:butt;stroke-linejoin:round;stroke-dasharray:none;stroke-dashoffset:0;stroke-opacity:0.65098"
     d="m 0,160 v 760 a 160,160 45 0 0 160,160 H 920 A 160,160 135 0 0 1080,920 V 160 A 160,160 45 0 0 920,0 H 160 A 160,160 135 0 0 0,160 Z M 446.17947,77.037038 h 188.75145 c 39.41966,4e-5 75.84493,21.030153 95.55483,55.168542 l 43.64872,75.60221 c 11.54361,19.99541 -2.98089,44.97072 -26.06878,44.82603 l -189.98843,-1.19537 c -11.17532,-0.0707 -21.52838,5.86334 -27.11588,15.5418 L 480.54,354.31388 c -10.60941,18.37668 2.65215,41.34731 23.87153,41.34837 h 336.36972 c 25.87308,3.7e-4 49.78063,13.80374 62.71701,36.21058 L 993.295,587.40306 c 6.33388,10.97096 9.6683,23.41592 9.668,36.08399 v 268.3648 c 0,61.36493 -49.74622,111.11115 -111.11115,111.11115 H 320.45247 c -21.21946,-10e-4 -34.48109,-22.97173 -23.87152,-41.34842 L 405.94329,772.19401 c 4.92451,-8.52877 14.02496,-13.7825 23.87334,-13.78219 h 354.03103 c 21.74195,6.3e-4 35.3308,-23.53597 24.45927,-42.36473 L 757.59259,628.2071 C 752.54353,619.46135 743.212,614.0738 733.11343,614.07407 H 373.66608 c -26.66964,1.3e-4 -51.31339,14.22814 -64.64843,37.32459 L 129.48749,962.35062 c -5.56842,9.64475 -17.29236,11.89753 -24.64193,3.54817 C 78.671501,936.16405 77.037043,903.17286 77.037038,896.48148 V 624.23937 c 3.06e-4,-13.1615 3.465025,-26.09106 10.045931,-37.48916 L 348.95725,133.16768 c 20.05396,-34.733887 57.11481,-56.130742 97.22222,-56.130642 z" />
</svg>
